<?xml version="1.0" encoding="UTF-8" standalone="no"?>
<!DOCTYPE svg PUBLIC "-//W3C//DTD SVG 1.1//EN"
 "http://www.w3.org/Graphics/SVG/1.1/DTD/svg11.dtd">
<!-- Generated by graphviz version 2.43.0 (0)
 -->
<!-- Title: G Pages: 1 -->
<svg width="1269pt" height="269pt"
 viewBox="0.00 0.00 1269.20 269.20" xmlns="http://www.w3.org/2000/svg" xmlns:xlink="http://www.w3.org/1999/xlink">
<g id="graph0" class="graph" transform="scale(1 1) rotate(0) translate(21.6 247.6)">
<title>G</title>
<polygon fill="#111111" stroke="transparent" points="-21.6,21.6 -21.6,-247.6 1247.6,-247.6 1247.6,21.6 -21.6,21.6"/>
<!-- App.tsx -->
<g id="node1" class="node">
<title>App.tsx</title>
<path fill="none" stroke="#c6c5fe" d="M167.33,-128C167.33,-128 120.67,-128 120.67,-128 116.83,-128 113,-124.17 113,-120.33 113,-120.33 113,-112.67 113,-112.67 113,-108.83 116.83,-105 120.67,-105 120.67,-105 167.33,-105 167.33,-105 171.17,-105 175,-108.83 175,-112.67 175,-112.67 175,-120.33 175,-120.33 175,-124.17 171.17,-128 167.33,-128"/>
<text text-anchor="middle" x="144" y="-112.8" font-family="Arial" font-size="14.00" fill="#c6c5fe">App.tsx</text>
</g>
<!-- page/router.tsx -->
<g id="node2" class="node">
<title>page/router.tsx</title>
<path fill="none" stroke="#c6c5fe" d="M318.33,-128C318.33,-128 227.67,-128 227.67,-128 223.83,-128 220,-124.17 220,-120.33 220,-120.33 220,-112.67 220,-112.67 220,-108.83 223.83,-105 227.67,-105 227.67,-105 318.33,-105 318.33,-105 322.17,-105 326,-108.83 326,-112.67 326,-112.67 326,-120.33 326,-120.33 326,-124.17 322.17,-128 318.33,-128"/>
<text text-anchor="middle" x="273" y="-112.8" font-family="Arial" font-size="14.00" fill="#c6c5fe">page/router.tsx</text>
</g>
<!-- App.tsx&#45;&gt;page/router.tsx -->
<g id="edge1" class="edge">
<title>App.tsx&#45;&gt;page/router.tsx</title>
<path fill="none" stroke="#757575" d="M175.1,-116.5C185.53,-116.5 197.64,-116.5 209.69,-116.5"/>
<polygon fill="#757575" stroke="#757575" points="209.76,-120 219.76,-116.5 209.76,-113 209.76,-120"/>
</g>
<!-- page/Home.tsx -->
<g id="node14" class="node">
<title>page/Home.tsx</title>
<path fill="none" stroke="#c6c5fe" d="M477.83,-178C477.83,-178 385.17,-178 385.17,-178 381.33,-178 377.5,-174.17 377.5,-170.33 377.5,-170.33 377.5,-162.67 377.5,-162.67 377.5,-158.83 381.33,-155 385.17,-155 385.17,-155 477.83,-155 477.83,-155 481.67,-155 485.5,-158.83 485.5,-162.67 485.5,-162.67 485.5,-170.33 485.5,-170.33 485.5,-174.17 481.67,-178 477.83,-178"/>
<text text-anchor="middle" x="431.5" y="-162.8" font-family="Arial" font-size="14.00" fill="#c6c5fe">page/Home.tsx</text>
</g>
<!-- page/router.tsx&#45;&gt;page/Home.tsx -->
<g id="edge17" class="edge">
<title>page/router.tsx&#45;&gt;page/Home.tsx</title>
<path fill="none" stroke="#757575" d="M310.3,-128.1C332.42,-135.16 360.89,-144.26 384.58,-151.83"/>
<polygon fill="#757575" stroke="#757575" points="383.81,-155.26 394.4,-154.97 385.94,-148.59 383.81,-155.26"/>
</g>
<!-- page/MeetRoom.tsx -->
<g id="node15" class="node">
<title>page/MeetRoom.tsx</title>
<path fill="none" stroke="#c6c5fe" d="M493.33,-108C493.33,-108 369.67,-108 369.67,-108 365.83,-108 362,-104.17 362,-100.33 362,-100.33 362,-92.67 362,-92.67 362,-88.83 365.83,-85 369.67,-85 369.67,-85 493.33,-85 493.33,-85 497.17,-85 501,-88.83 501,-92.67 501,-92.67 501,-100.33 501,-100.33 501,-104.17 497.17,-108 493.33,-108"/>
<text text-anchor="middle" x="431.5" y="-92.8" font-family="Arial" font-size="14.00" fill="#c6c5fe">page/MeetRoom.tsx</text>
</g>
<!-- page/router.tsx&#45;&gt;page/MeetRoom.tsx -->
<g id="edge18" class="edge">
<title>page/router.tsx&#45;&gt;page/MeetRoom.tsx</title>
<path fill="none" stroke="#757575" d="M326.11,-109.84C334.36,-108.79 343.04,-107.68 351.73,-106.57"/>
<polygon fill="#757575" stroke="#757575" points="352.43,-110.01 361.91,-105.27 351.55,-103.06 352.43,-110.01"/>
</g>
<!-- components/Conference/Conference.tsx -->
<g id="node3" class="node">
<title>components/Conference/Conference.tsx</title>
<path fill="none" stroke="#c6c5fe" d="M788.33,-123C788.33,-123 544.67,-123 544.67,-123 540.83,-123 537,-119.17 537,-115.33 537,-115.33 537,-107.67 537,-107.67 537,-103.83 540.83,-100 544.67,-100 544.67,-100 788.33,-100 788.33,-100 792.17,-100 796,-103.83 796,-107.67 796,-107.67 796,-115.33 796,-115.33 796,-119.17 792.17,-123 788.33,-123"/>
<text text-anchor="middle" x="666.5" y="-107.8" font-family="Arial" font-size="14.00" fill="#c6c5fe">components/Conference/Conference.tsx</text>
</g>
<!-- components/Conference/Side.tsx -->
<g id="node4" class="node">
<title>components/Conference/Side.tsx</title>
<path fill="none" stroke="#cfffac" d="M1044.33,-185C1044.33,-185 843.67,-185 843.67,-185 839.83,-185 836,-181.17 836,-177.33 836,-177.33 836,-169.67 836,-169.67 836,-165.83 839.83,-162 843.67,-162 843.67,-162 1044.33,-162 1044.33,-162 1048.17,-162 1052,-165.83 1052,-169.67 1052,-169.67 1052,-177.33 1052,-177.33 1052,-181.17 1048.17,-185 1044.33,-185"/>
<text text-anchor="middle" x="944" y="-169.8" font-family="Arial" font-size="14.00" fill="#cfffac">components/Conference/Side.tsx</text>
</g>
<!-- components/Conference/Conference.tsx&#45;&gt;components/Conference/Side.tsx -->
<g id="edge2" class="edge">
<title>components/Conference/Conference.tsx&#45;&gt;components/Conference/Side.tsx</title>
<path fill="none" stroke="#757575" d="M709.22,-123.03C742.36,-131.98 789.95,-144.36 832,-153.5 842.55,-155.79 853.7,-158.03 864.71,-160.12"/>
<polygon fill="#757575" stroke="#757575" points="864.28,-163.6 874.75,-162 865.57,-156.72 864.28,-163.6"/>
</g>
<!-- components/Conference/Tool.tsx -->
<g id="node5" class="node">
<title>components/Conference/Tool.tsx</title>
<path fill="none" stroke="#c6c5fe" d="M1043.33,-144C1043.33,-144 844.67,-144 844.67,-144 840.83,-144 837,-140.17 837,-136.33 837,-136.33 837,-128.67 837,-128.67 837,-124.83 840.83,-121 844.67,-121 844.67,-121 1043.33,-121 1043.33,-121 1047.17,-121 1051,-124.83 1051,-128.67 1051,-128.67 1051,-136.33 1051,-136.33 1051,-140.17 1047.17,-144 1043.33,-144"/>
<text text-anchor="middle" x="944" y="-128.8" font-family="Arial" font-size="14.00" fill="#c6c5fe">components/Conference/Tool.tsx</text>
</g>
<!-- components/Conference/Conference.tsx&#45;&gt;components/Conference/Tool.tsx -->
<g id="edge3" class="edge">
<title>components/Conference/Conference.tsx&#45;&gt;components/Conference/Tool.tsx</title>
<path fill="none" stroke="#757575" d="M796.38,-121.32C806.57,-122.1 816.82,-122.88 826.91,-123.65"/>
<polygon fill="#757575" stroke="#757575" points="826.71,-127.15 836.94,-124.42 827.24,-120.17 826.71,-127.15"/>
</g>
<!-- components/Conference/Video.tsx -->
<g id="node6" class="node">
<title>components/Conference/Video.tsx</title>
<path fill="none" stroke="#c6c5fe" d="M1048.33,-103C1048.33,-103 839.67,-103 839.67,-103 835.83,-103 832,-99.17 832,-95.33 832,-95.33 832,-87.67 832,-87.67 832,-83.83 835.83,-80 839.67,-80 839.67,-80 1048.33,-80 1048.33,-80 1052.17,-80 1056,-83.83 1056,-87.67 1056,-87.67 1056,-95.33 1056,-95.33 1056,-99.17 1052.17,-103 1048.33,-103"/>
<text text-anchor="middle" x="944" y="-87.8" font-family="Arial" font-size="14.00" fill="#c6c5fe">components/Conference/Video.tsx</text>
</g>
<!-- components/Conference/Conference.tsx&#45;&gt;components/Conference/Video.tsx -->
<g id="edge4" class="edge">
<title>components/Conference/Conference.tsx&#45;&gt;components/Conference/Video.tsx</title>
<path fill="none" stroke="#757575" d="M796.38,-102.14C804.84,-101.53 813.35,-100.91 821.77,-100.3"/>
<polygon fill="#757575" stroke="#757575" points="822.28,-103.77 832,-99.56 821.77,-96.79 822.28,-103.77"/>
</g>
<!-- hooks/useDevice.ts -->
<g id="node7" class="node">
<title>hooks/useDevice.ts</title>
<path fill="none" stroke="#cfffac" d="M1218.33,-144C1218.33,-144 1099.67,-144 1099.67,-144 1095.83,-144 1092,-140.17 1092,-136.33 1092,-136.33 1092,-128.67 1092,-128.67 1092,-124.83 1095.83,-121 1099.67,-121 1099.67,-121 1218.33,-121 1218.33,-121 1222.17,-121 1226,-124.83 1226,-128.67 1226,-128.67 1226,-136.33 1226,-136.33 1226,-140.17 1222.17,-144 1218.33,-144"/>
<text text-anchor="middle" x="1159" y="-128.8" font-family="Arial" font-size="14.00" fill="#cfffac">hooks/useDevice.ts</text>
</g>
<!-- components/Conference/Tool.tsx&#45;&gt;hooks/useDevice.ts -->
<g id="edge5" class="edge">
<title>components/Conference/Tool.tsx&#45;&gt;hooks/useDevice.ts</title>
<path fill="none" stroke="#757575" d="M1051.19,-132.5C1061.47,-132.5 1071.76,-132.5 1081.67,-132.5"/>
<polygon fill="#757575" stroke="#757575" points="1081.85,-136 1091.85,-132.5 1081.85,-129 1081.85,-136"/>
</g>
<!-- components/Conference/Video.tsx&#45;&gt;hooks/useDevice.ts -->
<g id="edge7" class="edge">
<title>components/Conference/Video.tsx&#45;&gt;hooks/useDevice.ts</title>
<path fill="none" stroke="#757575" d="M1010.49,-103.02C1025.46,-105.73 1041.29,-108.66 1056,-111.5 1068.12,-113.84 1081.02,-116.42 1093.44,-118.96"/>
<polygon fill="#757575" stroke="#757575" points="1092.76,-122.39 1103.26,-120.97 1094.17,-115.53 1092.76,-122.39"/>
</g>
<!-- hooks/useClient.ts -->
<g id="node8" class="node">
<title>hooks/useClient.ts</title>
<path fill="none" stroke="#cfffac" d="M1214.83,-63C1214.83,-63 1103.17,-63 1103.17,-63 1099.33,-63 1095.5,-59.17 1095.5,-55.33 1095.5,-55.33 1095.5,-47.67 1095.5,-47.67 1095.5,-43.83 1099.33,-40 1103.17,-40 1103.17,-40 1214.83,-40 1214.83,-40 1218.67,-40 1222.5,-43.83 1222.5,-47.67 1222.5,-47.67 1222.5,-55.33 1222.5,-55.33 1222.5,-59.17 1218.67,-63 1214.83,-63"/>
<text text-anchor="middle" x="1159" y="-47.8" font-family="Arial" font-size="14.00" fill="#cfffac">hooks/useClient.ts</text>
</g>
<!-- components/Conference/Video.tsx&#45;&gt;hooks/useClient.ts -->
<g id="edge6" class="edge">
<title>components/Conference/Video.tsx&#45;&gt;hooks/useClient.ts</title>
<path fill="none" stroke="#757575" d="M1006.32,-79.98C1031.5,-75.26 1060.8,-69.75 1086.91,-64.85"/>
<polygon fill="#757575" stroke="#757575" points="1087.56,-68.29 1096.74,-63 1086.27,-61.41 1087.56,-68.29"/>
</g>
<!-- components/NameBox.tsx -->
<g id="node9" class="node">
<title>components/NameBox.tsx</title>
<path fill="none" stroke="#c6c5fe" d="M746.83,-23C746.83,-23 586.17,-23 586.17,-23 582.33,-23 578.5,-19.17 578.5,-15.33 578.5,-15.33 578.5,-7.67 578.5,-7.67 578.5,-3.83 582.33,0 586.17,0 586.17,0 746.83,0 746.83,0 750.67,0 754.5,-3.83 754.5,-7.67 754.5,-7.67 754.5,-15.33 754.5,-15.33 754.5,-19.17 750.67,-23 746.83,-23"/>
<text text-anchor="middle" x="666.5" y="-7.8" font-family="Arial" font-size="14.00" fill="#c6c5fe">components/NameBox.tsx</text>
</g>
<!-- components/NameBox.tsx&#45;&gt;hooks/useClient.ts -->
<g id="edge8" class="edge">
<title>components/NameBox.tsx&#45;&gt;hooks/useClient.ts</title>
<path fill="none" stroke="#757575" d="M754.82,-15.6C833.66,-19.72 952.77,-26.97 1056,-37.5 1065.44,-38.46 1075.34,-39.63 1085.12,-40.87"/>
<polygon fill="#757575" stroke="#757575" points="1084.87,-44.37 1095.24,-42.19 1085.77,-37.42 1084.87,-44.37"/>
</g>
<!-- components/RoomEntry.tsx -->
<g id="node10" class="node">
<title>components/RoomEntry.tsx</title>
<path fill="none" stroke="#cfffac" d="M750.33,-218C750.33,-218 582.67,-218 582.67,-218 578.83,-218 575,-214.17 575,-210.33 575,-210.33 575,-202.67 575,-202.67 575,-198.83 578.83,-195 582.67,-195 582.67,-195 750.33,-195 750.33,-195 754.17,-195 758,-198.83 758,-202.67 758,-202.67 758,-210.33 758,-210.33 758,-214.17 754.17,-218 750.33,-218"/>
<text text-anchor="middle" x="666.5" y="-202.8" font-family="Arial" font-size="14.00" fill="#cfffac">components/RoomEntry.tsx</text>
</g>
<!-- components/VideoContent.tsx -->
<g id="node11" class="node">
<title>components/VideoContent.tsx</title>
<path fill="none" stroke="#c6c5fe" d="M1034.83,-226C1034.83,-226 853.17,-226 853.17,-226 849.33,-226 845.5,-222.17 845.5,-218.33 845.5,-218.33 845.5,-210.67 845.5,-210.67 845.5,-206.83 849.33,-203 853.17,-203 853.17,-203 1034.83,-203 1034.83,-203 1038.67,-203 1042.5,-206.83 1042.5,-210.67 1042.5,-210.67 1042.5,-218.33 1042.5,-218.33 1042.5,-222.17 1038.67,-226 1034.83,-226"/>
<text text-anchor="middle" x="944" y="-210.8" font-family="Arial" font-size="14.00" fill="#c6c5fe">components/VideoContent.tsx</text>
</g>
<!-- components/VideoContent.tsx&#45;&gt;hooks/useDevice.ts -->
<g id="edge9" class="edge">
<title>components/VideoContent.tsx&#45;&gt;hooks/useDevice.ts</title>
<path fill="none" stroke="#757575" d="M1028.35,-202.94C1037.82,-200.62 1047.21,-197.83 1056,-194.5 1085.03,-183.5 1115.02,-164.14 1134.9,-149.97"/>
<polygon fill="#757575" stroke="#757575" points="1136.99,-152.78 1143.03,-144.07 1132.88,-147.11 1136.99,-152.78"/>
</g>
<!-- index.scss -->
<g id="node12" class="node">
<title>index.scss</title>
<path fill="none" stroke="#cfffac" d="M176.33,-87C176.33,-87 111.67,-87 111.67,-87 107.83,-87 104,-83.17 104,-79.33 104,-79.33 104,-71.67 104,-71.67 104,-67.83 107.83,-64 111.67,-64 111.67,-64 176.33,-64 176.33,-64 180.17,-64 184,-67.83 184,-71.67 184,-71.67 184,-79.33 184,-79.33 184,-83.17 180.17,-87 176.33,-87"/>
<text text-anchor="middle" x="144" y="-71.8" font-family="Arial" font-size="14.00" fill="#cfffac">index.scss</text>
</g>
<!-- main.tsx -->
<g id="node13" class="node">
<title>main.tsx</title>
<path fill="none" stroke="#c6c5fe" d="M60.33,-107C60.33,-107 7.67,-107 7.67,-107 3.83,-107 0,-103.17 0,-99.33 0,-99.33 0,-91.67 0,-91.67 0,-87.83 3.83,-84 7.67,-84 7.67,-84 60.33,-84 60.33,-84 64.17,-84 68,-87.83 68,-91.67 68,-91.67 68,-99.33 68,-99.33 68,-103.17 64.17,-107 60.33,-107"/>
<text text-anchor="middle" x="34" y="-91.8" font-family="Arial" font-size="14.00" fill="#c6c5fe">main.tsx</text>
</g>
<!-- main.tsx&#45;&gt;App.tsx -->
<g id="edge10" class="edge">
<title>main.tsx&#45;&gt;App.tsx</title>
<path fill="none" stroke="#757575" d="M68.28,-101.97C79.2,-104.09 91.44,-106.48 102.81,-108.69"/>
<polygon fill="#757575" stroke="#757575" points="102.46,-112.18 112.94,-110.66 103.8,-105.31 102.46,-112.18"/>
</g>
<!-- main.tsx&#45;&gt;index.scss -->
<g id="edge11" class="edge">
<title>main.tsx&#45;&gt;index.scss</title>
<path fill="none" stroke="#757575" d="M68.28,-89.34C76.39,-87.83 85.23,-86.2 93.91,-84.59"/>
<polygon fill="#757575" stroke="#757575" points="94.76,-87.99 103.95,-82.73 93.48,-81.11 94.76,-87.99"/>
</g>
<!-- page/Home.tsx&#45;&gt;components/RoomEntry.tsx -->
<g id="edge12" class="edge">
<title>page/Home.tsx&#45;&gt;components/RoomEntry.tsx</title>
<path fill="none" stroke="#757575" d="M485.66,-175.63C515.97,-180.83 554.5,-187.44 588.11,-193.21"/>
<polygon fill="#757575" stroke="#757575" points="587.92,-196.73 598.37,-194.98 589.1,-189.83 587.92,-196.73"/>
</g>
<!-- page/Home.tsx&#45;&gt;components/VideoContent.tsx -->
<g id="edge13" class="edge">
<title>page/Home.tsx&#45;&gt;components/VideoContent.tsx</title>
<path fill="none" stroke="#757575" d="M485.74,-166.71C556.8,-167.61 686.43,-171.41 796,-186.5 812.24,-188.74 815.93,-191.27 832,-194.5 843.14,-196.74 854.92,-198.99 866.5,-201.13"/>
<polygon fill="#757575" stroke="#757575" points="866.12,-204.62 876.59,-202.99 867.39,-197.74 866.12,-204.62"/>
</g>
<!-- page/MeetRoom.tsx&#45;&gt;components/Conference/Conference.tsx -->
<g id="edge14" class="edge">
<title>page/MeetRoom.tsx&#45;&gt;components/Conference/Conference.tsx</title>
<path fill="none" stroke="#757575" d="M501.15,-100.92C509.25,-101.44 517.73,-101.99 526.38,-102.54"/>
<polygon fill="#757575" stroke="#757575" points="526.4,-106.05 536.61,-103.2 526.85,-99.07 526.4,-106.05"/>
</g>
<!-- page/MeetRoom.tsx&#45;&gt;hooks/useClient.ts -->
<g id="edge16" class="edge">
<title>page/MeetRoom.tsx&#45;&gt;hooks/useClient.ts</title>
<path fill="none" stroke="#757575" d="M501.06,-91.9C580.63,-86.59 715.8,-77.67 832,-70.5 919.01,-65.13 1019.12,-59.36 1085.19,-55.6"/>
<polygon fill="#757575" stroke="#757575" points="1085.71,-59.08 1095.5,-55.02 1085.31,-52.09 1085.71,-59.08"/>
</g>
<!-- page/MeetRoom.tsx&#45;&gt;components/NameBox.tsx -->
<g id="edge15" class="edge">
<title>page/MeetRoom.tsx&#45;&gt;components/NameBox.tsx</title>
<path fill="none" stroke="#757575" d="M449.07,-84.95C469.03,-71.57 504.01,-49.8 537,-37.5 550.04,-32.64 564.19,-28.62 578.16,-25.31"/>
<polygon fill="#757575" stroke="#757575" points="579.31,-28.64 588.29,-23.02 577.77,-21.81 579.31,-28.64"/>
</g>
</g>
</svg>
